<?xml version="1.0" encoding="utf-8"?>
<!-- Generator: Adobe Illustrator 21.0.0, SVG Export Plug-In . SVG Version: 6.00 Build 0)  -->
<svg version="1.1" id="logo-engre" xmlns="http://www.w3.org/2000/svg" xmlns:xlink="http://www.w3.org/1999/xlink" x="0px" y="0px"
	 viewBox="0 0 130 32" style="enable-background:new 0 0 130 32;" xml:space="preserve">
<style type="text/css">
	.st0{fill:#FFFFFF;}
</style>
<path class="st0" d="M5.3,28.4H1.2v-2h4.7v-0.5H0.4v5.8H6v-0.5H1.2v-2.3h4.1V28.4z"/>
<path class="st0" d="M15,25.8h-0.8v4.9l-5-4.9H8.3v5.8h0.8v-4.9l5,4.9H15V25.8z"/>
<path class="st0" d="M24.4,28.8h-3.2v0.5h2.3v1.4c-0.2,0.1-0.5,0.3-0.9,0.3c-0.4,0.1-0.9,0.1-1.3,0.1c-0.8,0-1.5-0.2-2-0.6
	c-0.5-0.4-0.7-0.9-0.7-1.6v-0.6c0-0.7,0.2-1.2,0.7-1.6c0.5-0.4,1.1-0.6,1.9-0.6c0.7,0,1.2,0.1,1.6,0.3c0.4,0.2,0.7,0.5,0.8,0.9h0.8
	c-0.1-0.6-0.5-1-1-1.3c-0.6-0.3-1.3-0.5-2.2-0.5c-1.1,0-1.9,0.2-2.5,0.7c-0.6,0.5-0.9,1.1-0.9,1.9V29c0,0.8,0.3,1.5,1,2
	c0.7,0.5,1.5,0.7,2.6,0.7c0.9,0,1.7-0.1,2.3-0.3c0.4-0.1,0.6-0.3,0.8-0.4V28.8z"/>
<path class="st0" d="M28.6,25.8h-0.9v5.8h0.9V25.8z"/>
<path class="st0" d="M38.6,25.8h-0.8v4.9l-5-4.9h-0.8v5.8h0.8v-4.9l5,4.9h0.8V25.8z"/>
<path class="st0" d="M46.5,28.4h-4.1v-2h4.7v-0.5h-5.6v5.8h5.6v-0.5h-4.7v-2.3h4.1V28.4z"/>
<path class="st0" d="M54.4,28.4h-4.1v-2H55v-0.5h-5.6v5.8h5.6v-0.5h-4.7v-2.3h4.1V28.4z"/>
<path class="st0" d="M62.8,31.6h0.9v0l-2.2-2.4c0.5-0.1,1-0.3,1.3-0.6c0.3-0.3,0.5-0.6,0.5-1c0-0.5-0.3-1-0.8-1.3
	c-0.5-0.3-1.3-0.5-2.2-0.5h-2.9v5.8h0.8v-2.3h2.5L62.8,31.6z M58.2,26.3h2.1c0.7,0,1.2,0.1,1.6,0.3c0.4,0.2,0.6,0.5,0.6,0.9
	c0,0.4-0.2,0.6-0.6,0.9c-0.4,0.2-0.9,0.3-1.5,0.3h-2.3V26.3z"/>
<path class="st0" d="M75.8,28.4h-4.1v-2h4.7v-0.5h-5.6v5.8h5.6v-0.5h-4.7v-2.3h4.1V28.4z"/>
<path class="st0" d="M79.5,25.8h-0.8v5.8h5.2v-0.5h-4.4V25.8z"/>
<path class="st0" d="M91,28.4h-4.1v-2h4.7v-0.5H86v5.8h5.6v-0.5h-4.7v-2.3H91V28.4z"/>
<path class="st0" d="M93.9,25.8v5.8h0.8v-2.4l-0.1-2.7l3.2,5.1h0.6l3.3-5.1l-0.1,2.7v2.4h0.8v-5.8h-1.1l-3.2,5l-3.2-5H93.9z"/>
<path class="st0" d="M110.8,28.4h-4.1v-2h4.7v-0.5h-5.6v5.8h5.6v-0.5h-4.7v-2.3h4.1V28.4z"/>
<path class="st0" d="M120.5,25.8h-0.8v4.9l-5-4.9h-0.8v5.8h0.8v-4.9l5,4.9h0.8V25.8z"/>
<path class="st0" d="M129.5,25.8h-6.9v0.5h3v5.3h0.8v-5.3h3V25.8z"/>
<path class="st0" d="M1.4,18.7c0.9,0.9,2,1.4,3.2,1.4H21v-4.5H7c-0.4,0-0.8-0.1-1-0.4c-0.3-0.3-0.4-0.6-0.4-1v-1.7h14.1V7.9H5.6V6.2
	c0-0.4,0.1-0.8,0.4-1c0.3-0.3,0.6-0.4,1-0.4h14V0.3H4.5c-1.2,0-2.2,0.5-3.2,1.4C0.5,2.5,0,3.6,0,4.8v10.7C0,16.7,0.5,17.7,1.4,18.7z
	"/>
<path class="st0" d="M29.1,20v-13c0-0.1,0.1-0.3,0.2-0.4c0.1-0.1,0.2-0.2,0.4-0.2c0.3,0,0.5,0.1,0.7,0.3l9,10.7
	c0.5,0.8,1.2,1.4,2,1.8c0.8,0.5,1.7,0.7,2.6,0.7c1.6,0,2.9-0.6,4-1.7c1.1-1.1,1.7-2.4,1.7-4V0.3h-5.6v13c0,0.4-0.2,0.6-0.6,0.6
	c-0.2,0-0.3,0-0.4,0c-0.1,0-0.1-0.1-0.2-0.2L33.8,2.8c-0.5-0.8-1.2-1.4-2-1.9c-0.8-0.5-1.7-0.7-2.7-0.7c-1.6,0-2.9,0.6-4,1.7
	c-1.1,1.1-1.7,2.4-1.7,4V20H29.1z"/>
<path class="st0" d="M53.8,18.7c0.9,0.9,2,1.4,3.2,1.4H74c0.8,0,1.4-0.3,2-0.8c0.5-0.6,0.8-1.2,0.8-2V7.9H65.7v4.5h5.5v1.7
	c0,0.4-0.1,0.8-0.4,1c-0.3,0.3-0.6,0.4-1,0.4H59.5c-0.4,0-0.8-0.1-1-0.4c-0.3-0.3-0.4-0.6-0.4-1V6.2c0-0.4,0.1-0.8,0.4-1
	c0.3-0.3,0.6-0.4,1-0.4h17.3V0.3H57c-1.2,0-2.2,0.5-3.2,1.4c-0.9,0.9-1.4,2-1.4,3.2v10.7C52.4,16.7,52.9,17.7,53.8,18.7z"/>
<path class="st0" d="M85.7,20v-7.6H97c0.2,0,0.4,0,0.5,0.1c0.2,0,0.3,0.1,0.4,0.1c0.1,0,0.2,0.1,0.3,0.2c0.1,0.1,0.1,0.2,0.2,0.3
	c0,0.1,0.1,0.2,0.2,0.4c0.1,0.2,0.1,0.4,0.2,0.4l2,6.1h5.9l-2-6.1c-0.3-1.1-0.7-1.8-1.1-2.2c-0.4-0.4-1-0.6-1.7-0.6
	c0.8,0,1.4-0.3,2-0.8c0.6-0.6,0.8-1.2,0.8-2V3.1c0-0.8-0.3-1.4-0.8-2c-0.6-0.6-1.2-0.8-2-0.8H80v4.5h17.5c0.4,0,0.8,0.1,1,0.4
	c0.3,0.3,0.4,0.6,0.4,1v0.3c0,0.4-0.1,0.8-0.4,1c-0.3,0.3-0.6,0.4-1,0.4H80V20H85.7z"/>
<path class="st0" d="M110.4,18.7c0.9,0.9,2,1.4,3.2,1.4H130v-4.5h-14c-0.4,0-0.8-0.1-1-0.4c-0.3-0.3-0.4-0.6-0.4-1v-1.7h14.1V7.9
	h-14.1V6.2c0-0.4,0.1-0.8,0.4-1c0.3-0.3,0.6-0.4,1-0.4h14V0.3h-16.5c-1.2,0-2.2,0.5-3.2,1.4c-0.9,0.9-1.4,2-1.4,3.2v10.7
	C109,16.7,109.5,17.7,110.4,18.7z"/>
</svg>
