<?xml version="1.0" encoding="utf-8"?>
<!-- Generator: Adobe Illustrator 21.0.0, SVG Export Plug-In . SVG Version: 6.00 Build 0)  -->
<svg version="1.1" id="Layer_1" xmlns="http://www.w3.org/2000/svg" xmlns:xlink="http://www.w3.org/1999/xlink" x="0px" y="0px"
	 viewBox="0 0 108 64" style="enable-background:new 0 0 108 64;" xml:space="preserve">
<style type="text/css">
	.st0{fill:#0D47A1;}
</style>
<path class="st0" d="M108.6,20.4v-1.6l-1.4,0.7c-0.1,0-0.1,0.1-0.2,0.1h-0.1c-0.1,0-0.2,0.1-0.2,0.1c-0.3,0.1-0.5,0.2-0.8,0.3
	c-1.8,1-3.7,2-5.6,3s-3.8,2-5.6,3c-1.6,0.9-3.1,1-4.5,0.3c-3-1.3-6.1-1.2-9.3,0.3c-2.9,1.4-5.5,3.2-8,4.9c-0.2,0.2-0.8,0.5-1.1,0.7
	c-0.1-0.2-0.2-0.5-0.4-1c-0.2-0.9-0.6-1.5-1.2-1.8s-1.3-0.3-2.1,0c-0.2,0.1-0.4,0.2-0.6,0.2C67,29.8,66.7,30,66.4,30
	c-1.9-0.2-3.3,0.7-4.5,1.6c2-2.5,4.1-5.4,5.5-8.6c1.3-3,2.3-6.2,3.3-9.3c0.2-0.7,0.4-1.4,0.7-2.1c0.7-3,0.7-5.7,0.1-8.3
	c-0.5-2.4-2.1-3.5-4.4-3.2c-1.1,0.2-2.7,0.6-3.7,1.6c-1.9,1.9-3.2,3.5-4.1,5.1c-2.6,4.7-3.5,10-4.4,15.1l-0.3,1.6
	c-0.3,1.6-0.4,3.2-0.6,4.8c-0.2,1.8-0.3,3.6-0.7,5.3c-0.7,3.1-2,4.9-4.3,5.7c-1,0.3-2,0.2-2.7-0.3s-1.1-1.4-1.1-2.5
	c0-1,0.3-1.9,0.7-2.9l0.1-0.2c0.2-0.6,0.4-1.1,0.7-1.6c0.3-0.7,0.6-1.5,0.9-2.3c0.2-0.5,0.1-1,0-1.2c-0.2-0.7-0.5-1-0.8-1.2
	c-0.5-0.3-1.1-0.3-1.5-0.1c-0.5,0.1-0.7,0.3-0.8,0.6c-0.4,0.5-0.9,1.3-1.1,2.3c-0.7,3.8-3.3,6.6-5.6,9.1c0-0.5,0-1,0-1.5
	c0-0.3,0-0.6,0-0.9v-0.4l-0.3-0.3c-0.2-0.2-0.4-0.3-0.5-0.3l-0.5-0.5l-0.7,0.5c-0.2,0.1-0.4,0.2-0.5,0.4c-0.2,0.1-0.4,0.3-0.7,0.5
	c-0.5,0.4-0.9,0.9-1.4,1.4c-0.4,0.4-0.7,0.8-1.1,1.1c-0.1-0.6-0.2-1.4-0.3-2.2l-0.1-1l-1,0.1c-0.8,0.1-1.4,0.4-1.8,0.9
	c0.1-0.6,0.2-1.2,0.3-1.8c0.2-1.3,0.5-2.7,0.6-4.1c0.1-2.2-0.8-2.9-2.7-3.5c-0.1,0-0.1-0.1-0.1-0.1s-0.1-0.1,0-0.4l0.4-1.6
	c0.7-3,1.3-5.8,1.9-8.8c0.5-2.4,0.8-5,1-7.9c0.1-2.2-1.1-3.5-3.2-3.7c-1.4-0.1-2.7,0-3.8,0.5C13.1,9,5.7,16.5,1.4,27.2
	C0.3,30.1-0.2,33,0,35.7c0.2,4.5,2.8,7.1,7.3,7.3c-1.3,2.7-2,5.4-2.2,8c-0.2,2.8-0.1,6.4,2,9.5c1.4,2,3.2,3.1,5.1,3.1
	c0.1,0,0.1,0,0.2,0c1.9-0.1,3.7-1.3,4.9-3.4c1.1-1.9,2-3.7,2.9-5.7c2.8-6.9,4.6-14,5.6-21.7c0.1-0.8,0.3-1.6,0.5-2.4
	c0-0.1,0.1-0.1,0.2-0.2c0.1,0.1,0.2,0.3,0.3,0.4c0,0.1,0,0.3-0.1,0.8c-0.5,2.4-1,4.8-1.5,7.1c-0.1,0.5-0.2,1.1-0.3,1.7
	c-0.1,0.6-0.3,1.2-0.4,1.7v0.2c0,0.3,0.2,1.5,1,1.9l0.1,0.1c0.7,0.2,1.6-0.1,2-0.5c0.4-0.3,0.6-0.7,0.9-1c0.1-0.1,0.1-0.2,0.2-0.3
	c0.3-0.4,0.5-0.8,0.8-1.2c2,1.5,3,1.3,5.2-0.7c0.4,1.4,1.1,1.9,1.7,2.1c0.5,0.2,1.4,0.2,2.5-0.5c0.6-0.4,1-0.9,1.4-1.3
	c0.2-0.2,0.4-0.4,0.6-0.6l0.3-0.3c0.5-0.5,0.9-1,1.4-1.6c0,0.1,0.1,0.2,0.1,0.4c0.6,1.7,1.6,2.9,2.8,3.5c1.3,0.6,2.9,0.7,4.6,0.1
	l0,0c-0.9,3-1.8,6.6-1.9,10.4c0,1.2,0,2.5,0.1,3.7c0,0.7,0.4,1.1,0.7,1.5c0.1,0.1,0.1,0.1,0.2,0.2l0.7,1l0.9-0.9
	C50.9,58,51,58,51,57.9c0.2-0.2,0.6-0.5,0.7-0.9c0.3-0.6,0.6-1.2,0.7-1.9c1.1-5.3,2.2-10.8,3.2-16.2c0.3-1.7,1.1-2.4,2.7-2.6
	c0.9,0,1.6-0.3,2.2-0.6l0.5-0.2c1-0.6,2-1.4,2.9-2c0.5-0.4,0.8-0.4,1.3-0.3c0.9,0.3,1.9,0,2.7-0.2l0.2-0.1l0,0c0,0.1,0,0.2,0.1,0.3
	c0.2,1,0.5,2.3,1.7,2.7c1.1,0.4,2.2-0.2,3-0.7c0.3-0.2,0.5-0.4,0.7-0.7c3.4-2.6,6.3-4.7,10-5.6c1.8-0.5,3.1-0.3,4.3,0.6
	c1.1,0.9,2.4,1.2,3.7,0.9c0.2,0,0.4-0.1,0.6-0.1c0.8-0.1,1.6-0.3,2.5-0.8c4.4-2.4,8.8-4.9,13-7.4c0.2-0.1,0.4-0.2,0.5-0.4
	c0.2-0.1,0.4-0.2,0.5-0.3l0.3-0.5L108.6,20.4z M56.5,30.2c0.2-1.7,0.4-3.2,0.7-4.8c0.7-3.8,1.4-7.7,2.3-11.6c1-4,2.7-7.3,5.2-9.7
	c0.3-0.3,0.4-0.4,0.6-0.6c1.1-0.7,1.8-1,2.5-0.6c0.6,0.3,0.6,0.7,0.7,1.9v0.3C69,8.6,68,12,67,15.5c-1.9,5.8-4.8,10.9-8.7,15.2
	C58,30.9,57.9,31,57.9,31s-0.1,0-0.3-0.1c-0.4-0.2-0.8-0.2-1.1-0.1C56.5,30.6,56.5,30.4,56.5,30.2z M7.9,53.5c0-0.2,0-0.4,0-0.7
	c-0.1-5.4,2.1-10.3,6.7-15.3c2.1-2.3,4.7-4.1,8.1-5.8c0.1,0,0.3-0.1,0.4-0.1c0,0.1,0,0.1,0,0.2l0,0c-1.2,7-2.5,13.8-5.1,20.3
	c-0.9,2.3-2,4.6-3.4,7c-0.4,0.7-1.1,1.5-2.1,1.6c-0.8,0.1-1.8-0.3-2.7-1.2c-1.3-1.3-1.7-3-1.9-5.2C7.8,54.1,7.9,53.8,7.9,53.5z
	 M23.8,27.6c0,0.1-0.2,0.4-0.5,0.5l-0.1,0.1c-1,0.6-2.1,1.2-3.2,1.7c-1.1,0.6-2.2,1.2-3.2,1.7c-0.4,0.2-0.8,0.5-1.1,0.8
	c-0.1,0.1-0.2,0.2-0.3,0.2c0.1-0.9,0.3-1.8,0.5-2.7c0.2-0.8,0.3-1.6,0.4-2.4c0.1-0.5,0-1.1-0.1-1.6L16,25.1h-2L13.9,26
	c-0.2,0.8-0.3,1.5-0.4,2.2c-0.1,0.7-0.2,1.4-0.4,2.1c-0.7,3.2-1.5,6-3.4,8.3c-1,1.2-2.1,1.6-3.6,1.4c-1.6-0.3-2.6-1-3.1-2.5
	C2.3,35.2,2.2,33,2.8,31C6,20.3,12.6,12.8,23.2,8.1c0.5-0.2,1.1-0.3,1.7-0.5c0.3,0,0.5-0.1,0.7-0.1s0.4-0.1,0.6-0.1
	c0.4,0,0.6,0.1,0.8,0.2c0.2,0.2,0.2,0.5,0.2,1.1c-0.3,3.1-0.8,6.1-1.3,9C25.4,20.7,24.7,23.9,23.8,27.6L23.8,27.6z"/>
</svg>
