<?xml version="1.0" encoding="utf-8"?>
<!-- Generator: Adobe Illustrator 21.0.0, SVG Export Plug-In . SVG Version: 6.00 Build 0)  -->
<svg version="1.1" id="wave" xmlns="http://www.w3.org/2000/svg" xmlns:xlink="http://www.w3.org/1999/xlink" x="0px" y="0px"
	 viewBox="0 0 1920.3 8.9" style="enable-background:new 0 0 1920.3 8.9;" xml:space="preserve" fill="#99a9b8">
<path d="M1911.7,0c-3.2-0.1-6.3,1.3-9.3,4.1c-2.7,2.6-5.6,3.9-8.5,3.8c-4.6-0.2-7.8-3.8-7.9-3.8l-0.2,0.1l0.2-0.1
	c-0.1-0.2-3.6-4-8.6-4.1c-3.2-0.1-6.3,1.3-9.3,4.1c-2.7,2.6-5.6,3.9-8.5,3.8c-4.6-0.2-7.8-3.8-7.9-3.8l-0.2,0.1l0.2-0.1
	c-0.1-0.2-3.6-3.9-8.6-4.1c-3.2-0.1-6.3,1.3-9.3,4.1c-2.7,2.6-5.6,3.9-8.5,3.8c-4.6-0.2-7.8-3.8-7.9-3.8l-0.2,0.1l0.2-0.1
	c-0.1-0.2-3.6-3.9-8.6-4.1c-3.2-0.1-6.3,1.3-9.3,4.1c-2.7,2.6-5.6,3.9-8.5,3.8c-4.6-0.2-7.8-3.8-7.9-3.8l-0.2,0.1l0.2-0.1
	c-0.1-0.2-3.6-4-8.6-4.1c-3.2-0.1-6.3,1.3-9.3,4.1c-2.7,2.6-5.6,3.9-8.5,3.8c-4.6-0.2-7.8-3.8-7.9-3.8l-0.2,0.1l0.2-0.1
	c-0.1-0.2-3.6-3.9-8.6-4.1c-3.2-0.1-6.3,1.3-9.3,4.1c-2.7,2.6-5.6,3.9-8.5,3.8c-4.6-0.2-7.8-3.8-7.9-3.8l-0.2,0.1l0.2-0.1
	c-0.1-0.2-3.6-4-8.6-4.1c-3.2-0.1-6.3,1.3-9.3,4.1c-2.7,2.6-5.6,3.9-8.5,3.8c-4.6-0.2-7.8-3.8-7.9-3.8l-0.2,0.1l0.2-0.1
	c-0.1-0.2-3.6-3.9-8.6-4.1c-3.2-0.1-6.3,1.3-9.3,4.1c-2.7,2.6-5.6,3.9-8.5,3.8c-4.6-0.2-7.8-3.8-7.9-3.8l-0.2,0.1l0.2-0.1
	c-0.1-0.2-3.6-4-8.6-4.1c-3.2-0.1-6.3,1.3-9.3,4.1c-2.7,2.6-5.6,3.9-8.5,3.8c-4.6-0.2-7.8-3.8-7.9-3.8c-0.1-0.2-3.6-3.9-8.6-4.1
	c-3.2-0.1-6.3,1.3-9.3,4.1c-2.7,2.6-5.6,3.9-8.5,3.8c-4.6-0.2-7.8-3.8-7.9-3.8l-0.2,0.1l0.2-0.1c-0.1-0.2-3.6-4-8.6-4.1
	c-3.2-0.1-6.3,1.3-9.3,4.1c-2.7,2.6-5.6,3.9-8.5,3.8c-4.6-0.2-7.8-3.8-7.9-3.8c-0.1-0.2-3.6-3.9-8.6-4.1c-3.2-0.1-6.3,1.3-9.3,4.1
	c-2.7,2.6-5.6,3.9-8.5,3.8c-4.6-0.2-7.8-3.8-7.9-3.8l-0.2,0.1l0.2-0.1c-0.1-0.2-3.6-4-8.6-4.1c-3.2-0.1-6.3,1.3-9.3,4.1
	c-2.7,2.6-5.6,3.9-8.5,3.8c-4.6-0.2-7.8-3.8-7.9-3.8c-0.1-0.2-3.6-3.9-8.6-4.1c-3.2-0.1-6.3,1.3-9.3,4.1c-2.7,2.6-5.6,3.9-8.5,3.8
	c-4.6-0.2-7.8-3.8-7.9-3.8l-0.2,0.1l0.2-0.1c-0.1-0.2-3.6-4-8.6-4.1c-3.2-0.1-6.3,1.3-9.3,4.1c-2.7,2.6-5.6,3.9-8.5,3.8
	c-4.6-0.2-7.8-3.8-7.9-3.8l-0.2,0.1l0.2-0.1c-0.1-0.2-3.6-3.9-8.6-4.1c-3.2-0.1-6.3,1.3-9.3,4.1c-2.7,2.6-5.6,3.9-8.5,3.8
	c-4.6-0.2-7.8-3.8-7.9-3.8l-0.2,0.1l0.2-0.1c-0.1-0.2-3.6-4-8.6-4.1c-3.2-0.1-6.3,1.3-9.3,4.1c-2.7,2.6-5.6,3.9-8.5,3.8
	c-4.6-0.2-7.8-3.8-7.9-3.8l-0.2,0.1l0.2-0.1c-0.1-0.2-3.6-3.9-8.6-4.1c-3.2-0.1-6.3,1.3-9.3,4.1c-2.7,2.6-5.6,3.9-8.5,3.8
	c-4.6-0.2-7.8-3.8-7.9-3.8l-0.2,0.1l0.2-0.1c-0.1-0.2-3.6-3.9-8.6-4.1c-3.2-0.1-6.3,1.3-9.3,4.1c-2.7,2.6-5.6,3.9-8.5,3.8
	c-4.6-0.2-7.8-3.8-7.9-3.8l-0.2,0.1l0.2-0.1c-0.1-0.2-3.6-4-8.6-4.1c-3.2-0.1-6.3,1.3-9.3,4.1c-2.7,2.6-5.6,3.9-8.5,3.8
	c-4.6-0.2-7.8-3.8-7.9-3.8l-0.2,0.1l0.2-0.1c-0.1-0.2-3.6-3.9-8.6-4.1c-3.2-0.1-6.3,1.3-9.3,4.1c-2.7,2.6-5.6,3.9-8.5,3.8
	c-4.6-0.2-7.8-3.8-7.9-3.8l-0.2,0.1l0.2-0.1c-0.1-0.2-3.6-4-8.6-4.1c-3.2-0.1-6.3,1.3-9.3,4.1c-2.7,2.6-5.6,3.9-8.5,3.8
	c-4.6-0.2-7.8-3.8-7.9-3.8l-0.2,0.1l0.2-0.1c-0.1-0.2-3.6-3.9-8.6-4.1c-3.2-0.1-6.3,1.3-9.3,4.1c-2.7,2.6-5.6,3.9-8.5,3.8
	c-4.6-0.2-7.8-3.8-7.9-3.8l-0.2,0.1l0.2-0.1c-0.1-0.2-3.6-4-8.6-4.1c-3.2-0.1-6.3,1.3-9.3,4.1c-2.7,2.6-5.6,3.9-8.5,3.8
	c-4.6-0.2-7.8-3.8-7.9-3.8c-0.1-0.2-3.6-3.9-8.6-4.1c-3.2-0.1-6.3,1.3-9.3,4.1c-2.7,2.6-5.6,3.9-8.5,3.8c-4.6-0.2-7.8-3.8-7.9-3.8
	l-0.2,0.1l0.2-0.1c-0.1-0.2-3.6-4-8.6-4.1c-3.2-0.1-6.3,1.3-9.3,4.1c-2.7,2.6-5.6,3.9-8.5,3.8c-4.6-0.2-7.8-3.8-7.9-3.8
	c-0.1-0.2-3.6-3.9-8.6-4.1c-3.2-0.1-6.3,1.3-9.3,4.1c-2.7,2.6-5.6,3.9-8.5,3.8c-4.6-0.2-7.8-3.8-7.9-3.8l-0.2,0.1l0.2-0.1
	c-0.1-0.2-3.6-4-8.6-4.1c-3.2-0.1-6.3,1.3-9.3,4.1c-2.7,2.6-5.6,3.9-8.5,3.8c-4.6-0.2-7.8-3.8-7.9-3.8C960.4,4,957,0.2,951.9,0
	c-3.2-0.1-6.3,1.3-9.3,4.1c-2.7,2.6-5.6,3.9-8.5,3.8c-4.6-0.2-7.8-3.8-7.9-3.8l-0.2,0.1l0.2-0.1c-0.1-0.2-3.6-3.9-8.6-4.1
	c-3.2-0.1-6.3,1.3-9.3,4.1c-2.7,2.6-5.6,3.9-8.5,3.8c-4.6-0.2-7.8-3.8-7.9-3.8l-0.2,0.1l0.2-0.1c-0.1-0.2-3.6-3.9-8.6-4.1
	c-3.2-0.1-6.3,1.3-9.3,4.1c-2.7,2.6-5.6,3.9-8.5,3.8c-4.6-0.2-7.8-3.8-7.9-3.8c-0.1-0.2-3.6-3.9-8.6-4.1c-3.2-0.1-6.3,1.3-9.3,4.1
	c-2.7,2.6-5.6,3.9-8.5,3.8c-4.6-0.2-7.8-3.8-7.9-3.8c-0.1-0.2-3.6-3.9-8.6-4.1c-3.2-0.1-6.3,1.3-9.3,4.1c-2.7,2.6-5.6,3.9-8.5,3.8
	c-4.6-0.2-7.8-3.8-7.9-3.8C789,4,785.6,0.2,780.5,0c-3.2-0.1-6.3,1.3-9.3,4.1c-2.7,2.6-5.6,3.9-8.5,3.8c-4.6-0.2-7.8-3.8-7.9-3.8
	c-0.1-0.2-3.6-3.9-8.6-4.1c-3.2-0.1-6.3,1.3-9.3,4.1c-2.7,2.6-5.6,3.9-8.5,3.8c-4.6-0.2-7.8-3.8-7.9-3.8C720.4,4,717,0.2,712,0
	c-3.2-0.1-6.3,1.3-9.3,4.1c-2.7,2.6-5.6,3.9-8.5,3.8c-4.6-0.2-7.8-3.8-7.9-3.8l-0.2,0.1l0.2-0.1c-0.1-0.2-3.6-3.9-8.6-4.1
	c-3.2-0.1-6.3,1.3-9.3,4.1c-2.7,2.6-5.6,3.9-8.5,3.8c-4.6-0.2-7.8-3.8-7.9-3.8l-0.2,0.1l0.2-0.1c-0.1-0.2-3.6-3.9-8.6-4.1
	c-3.2-0.1-6.3,1.3-9.3,4.1c-2.7,2.6-5.6,3.9-8.5,3.8c-4.6-0.2-7.8-3.8-7.9-3.8l-0.2,0.1l0.2-0.1c-0.1-0.2-3.6-3.9-8.6-4.1
	c-3.2-0.1-6.3,1.3-9.3,4.1c-2.7,2.6-5.6,3.9-8.5,3.8c-4.6-0.2-7.8-3.8-7.9-3.8l-0.2,0.1l0.2-0.1c-0.1-0.2-3.6-3.9-8.6-4.1
	c-3.2-0.1-6.3,1.3-9.3,4.1c-2.7,2.6-5.6,3.9-8.5,3.8c-4.6-0.2-7.8-3.8-7.9-3.8L549,4.3l0.2-0.1C549,4,545.6,0.2,540.6,0
	c-3.2-0.1-6.3,1.3-9.3,4.1c-2.7,2.6-5.6,3.9-8.5,3.8c-4.6-0.2-7.8-3.8-7.9-3.8l-0.2,0.1l0.2-0.1c-0.1-0.2-3.6-3.9-8.6-4.1
	c-3.2-0.1-6.3,1.3-9.3,4.1c-2.7,2.6-5.6,3.9-8.5,3.8c-4.6-0.2-7.8-3.8-7.9-3.8l-0.2,0.1l0.2-0.1C480.5,4,477.1,0.2,472,0
	c-3.2-0.1-6.3,1.3-9.3,4.1c-2.7,2.6-5.6,3.9-8.5,3.8c-4.6-0.2-7.8-3.8-7.9-3.8l-0.2,0.1l0.2-0.1c-0.1-0.2-3.6-3.9-8.6-4.1
	c-3.2-0.1-6.3,1.3-9.3,4.1c-2.7,2.6-5.6,3.9-8.5,3.8c-4.6-0.2-7.8-3.8-7.9-3.8l-0.2,0.1l0.2-0.1c-0.1-0.2-3.6-3.9-8.6-4.1
	c-3.2-0.1-6.3,1.3-9.3,4.1c-2.7,2.6-5.6,3.9-8.5,3.8c-4.6-0.2-7.8-3.8-7.9-3.8l-0.2,0.1l0.2-0.1c-0.1-0.2-3.6-3.9-8.6-4.1
	c-3.2-0.1-6.3,1.3-9.3,4.1c-2.7,2.6-5.6,3.9-8.5,3.8c-4.6-0.2-7.8-3.8-7.9-3.8C343.4,4,340,0.2,334.9,0c-3.2-0.1-6.3,1.3-9.3,4.1
	c-2.7,2.6-5.6,3.9-8.5,3.8c-4.6-0.2-7.8-3.8-7.9-3.8c-0.1-0.2-3.6-3.9-8.6-4.1c-3.2-0.1-6.3,1.3-9.3,4.1c-2.7,2.6-5.6,3.9-8.5,3.8
	c-4.6-0.2-7.8-3.8-7.9-3.8c-0.1-0.2-3.6-3.9-8.6-4.1c-3.2-0.1-6.3,1.3-9.3,4.1c-2.7,2.6-5.6,3.9-8.5,3.8c-4.6-0.2-7.8-3.8-7.9-3.8
	c-0.1-0.2-3.6-3.9-8.6-4.1c-3.2-0.1-6.3,1.3-9.3,4.1c-2.7,2.6-5.6,3.9-8.5,3.8c-4.6-0.2-7.8-3.8-7.9-3.8c-0.1-0.2-3.6-3.9-8.6-4.1
	c-3.2-0.1-6.3,1.3-9.3,4.1C185.8,6.8,183,8,180,7.9c-4.6-0.2-7.8-3.8-7.9-3.8C172,4,168.6,0.2,163.5,0c-3.2-0.1-6.3,1.3-9.3,4.1
	c-2.7,2.6-5.6,3.9-8.5,3.8c-4.6-0.2-7.8-3.8-7.9-3.8l-0.2,0.1l0.2-0.1c-0.1-0.2-3.6-3.9-8.6-4.1c-3.2-0.1-6.3,1.3-9.3,4.1
	c-2.7,2.6-5.6,3.9-8.5,3.8c-4.6-0.2-7.8-3.8-7.9-3.8l-0.2,0.1l0.2-0.1C103.4,4,100,0.2,95,0c-3.2-0.1-6.3,1.3-9.3,4.1
	C83,6.8,80.1,8,77.2,7.9c-4.6-0.2-7.8-3.8-7.9-3.8l-0.2,0.1l0.2-0.1C69.2,4,65.7,0.2,60.7,0c-3.2-0.1-6.3,1.3-9.3,4.1
	c-2.7,2.6-5.6,3.9-8.5,3.8c-4.6-0.2-7.8-3.8-7.9-3.8l-0.2,0.1L35,4.1C34.9,4,31.5,0.2,26.4,0c-3.2-0.1-6.3,1.3-9.3,4.1
	C14.4,6.8,11.6,8,8.6,7.9C4,7.8,0.8,4.2,0.7,4.1L0,4.8C0.1,5,3.5,8.8,8.6,8.9c0.1,0,0.3,0,0.4,0c3.1,0,6.1-1.4,8.9-4.1
	c2.7-2.6,5.6-3.9,8.5-3.8c4.6,0.2,7.9,3.8,7.9,3.8l0,0c0.1,0.2,3.5,3.9,8.6,4.1c0.1,0,0.3,0,0.4,0c3.1,0,6.1-1.4,8.9-4.1
	c2.7-2.6,5.6-3.9,8.5-3.8c4.6,0.2,7.9,3.8,7.9,3.8l0,0c0.1,0.2,3.5,3.9,8.6,4.1c0.1,0,0.3,0,0.4,0c3.1,0,6.1-1.4,8.9-4.1
	C89.1,2.2,92,0.9,94.9,1c4.6,0.2,7.9,3.8,7.9,3.8l0,0c0.1,0.2,3.5,3.9,8.6,4.1c0.1,0,0.3,0,0.4,0c3.1,0,6.1-1.4,8.9-4.1
	c2.7-2.6,5.6-3.9,8.5-3.8c4.6,0.2,7.9,3.8,7.9,3.8l0,0c0.1,0.2,3.5,3.9,8.6,4.1c0.1,0,0.3,0,0.4,0c3.1,0,6.1-1.4,8.9-4.1
	c2.7-2.6,5.6-3.9,8.5-3.8c4.6,0.2,7.9,3.8,7.9,3.8l0,0c0.1,0.2,3.5,3.9,8.6,4.1c0.1,0,0.3,0,0.4,0c3.1,0,6.1-1.4,8.9-4.1
	c2.7-2.6,5.6-3.9,8.5-3.8c4.6,0.2,7.9,3.8,7.9,3.8l0,0c0.1,0.2,3.5,3.9,8.6,4.1c0.1,0,0.3,0,0.4,0c3.1,0,6.1-1.4,8.9-4.1
	c2.7-2.6,5.6-3.9,8.5-3.8c4.6,0.2,7.9,3.8,7.9,3.8l0,0c0.1,0.2,3.5,3.9,8.6,4.1c0.1,0,0.3,0,0.4,0c3.1,0,6.1-1.4,8.9-4.1
	c2.7-2.6,5.6-3.9,8.5-3.8c4.6,0.2,7.9,3.8,7.9,3.8l0,0c0.1,0.2,3.5,3.9,8.6,4.1c0.1,0,0.3,0,0.4,0c3.1,0,6.1-1.4,8.9-4.1
	c2.7-2.6,5.6-3.9,8.5-3.8c4.6,0.2,7.9,3.8,7.9,3.8l0,0c0.1,0.2,3.5,3.9,8.6,4.1c0.1,0,0.3,0,0.4,0c3.1,0,6.1-1.4,8.9-4.1
	c2.7-2.6,5.6-3.9,8.5-3.8c4.6,0.2,7.9,3.8,7.9,3.8l0,0c0.1,0.2,3.5,3.9,8.6,4.1c0.1,0,0.3,0,0.4,0c3.1,0,6.1-1.4,8.9-4.1
	c2.7-2.6,5.6-3.9,8.5-3.8c4.6,0.2,7.9,3.8,7.9,3.8l0,0c0.1,0.2,3.5,3.9,8.6,4.1c0.1,0,0.3,0,0.4,0c3.1,0,6.1-1.4,8.9-4.1
	c2.7-2.6,5.6-3.9,8.5-3.8c4.6,0.2,7.9,3.8,7.9,3.8l0,0c0.1,0.2,3.5,3.9,8.6,4.1c0.1,0,0.3,0,0.4,0c3.1,0,6.1-1.4,8.9-4.1
	c2.7-2.6,5.6-3.9,8.5-3.8c4.6,0.2,7.9,3.8,7.9,3.8l0,0c0.1,0.2,3.5,3.9,8.6,4.1c0.1,0,0.3,0,0.4,0c3.1,0,6.1-1.4,8.9-4.1
	c2.7-2.6,5.6-3.9,8.5-3.8c4.6,0.2,7.9,3.8,7.9,3.8l0,0c0.1,0.2,3.5,3.9,8.6,4.1c0.1,0,0.3,0,0.4,0c3.1,0,6.1-1.4,8.9-4.1
	c2.7-2.6,5.6-3.9,8.5-3.8c4.6,0.2,7.9,3.8,7.9,3.8l0,0c0.1,0.2,3.5,3.9,8.6,4.1c0.1,0,0.3,0,0.4,0c3.1,0,6.1-1.4,8.9-4.1
	c2.7-2.6,5.6-3.9,8.5-3.8c4.6,0.2,7.9,3.8,7.9,3.8l0,0c0.1,0.2,3.5,3.9,8.6,4.1c0.1,0,0.3,0,0.4,0c3.1,0,6.1-1.4,8.9-4.1
	c2.7-2.6,5.6-3.9,8.5-3.8c4.6,0.2,7.9,3.8,7.9,3.8l0,0c0.1,0.2,3.5,3.9,8.6,4.1c0.1,0,0.3,0,0.4,0c3.1,0,6.1-1.4,8.9-4.1
	c2.7-2.6,5.6-3.9,8.5-3.8c4.6,0.2,7.9,3.8,7.9,3.8l0,0c0.1,0.2,3.5,3.9,8.6,4.1c0.1,0,0.3,0,0.4,0c3.1,0,6.1-1.4,8.9-4.1
	c2.7-2.6,5.6-3.9,8.5-3.8c4.6,0.2,7.9,3.8,7.9,3.8l0,0c0.1,0.2,3.5,3.9,8.6,4.1c0.1,0,0.3,0,0.4,0c3.1,0,6.1-1.4,8.9-4.1
	c2.7-2.6,5.6-3.9,8.5-3.8c4.6,0.2,7.9,3.8,7.9,3.8l0,0c0.1,0.2,3.5,3.9,8.6,4.1c0.1,0,0.3,0,0.4,0c3.1,0,6.1-1.4,8.9-4.1
	c2.7-2.6,5.6-3.9,8.5-3.8c4.6,0.2,7.9,3.8,7.9,3.8l0,0c0.1,0.2,3.5,3.9,8.6,4.1c0.1,0,0.3,0,0.4,0c3.1,0,6.1-1.4,8.9-4.1
	c2.7-2.6,5.6-3.9,8.5-3.8c4.6,0.2,7.9,3.8,7.9,3.8l0,0c0.1,0.2,3.5,3.9,8.6,4.1c0.1,0,0.3,0,0.4,0c3.1,0,6.1-1.4,8.9-4.1
	c2.7-2.6,5.6-3.9,8.5-3.8c4.6,0.2,7.9,3.8,7.9,3.8l0,0c0.1,0.2,3.5,3.9,8.6,4.1c0.1,0,0.3,0,0.4,0c3.1,0,6.1-1.4,8.9-4.1
	c2.7-2.6,5.6-3.9,8.5-3.8c4.6,0.2,7.9,3.8,7.9,3.8l0,0c0.1,0.2,3.5,3.9,8.6,4.1c0.1,0,0.3,0,0.4,0c3.1,0,6.1-1.4,8.9-4.1
	c2.7-2.6,5.6-3.9,8.5-3.8c4.6,0.2,7.9,3.8,7.9,3.8l0,0c0.1,0.2,3.5,3.9,8.6,4.1c0.1,0,0.3,0,0.4,0c3.1,0,6.1-1.4,8.9-4.1
	c2.7-2.6,5.6-3.9,8.5-3.8c4.6,0.2,7.9,3.8,7.9,3.8l0,0c0.1,0.2,3.5,3.9,8.6,4.1c0.1,0,0.3,0,0.4,0c3.1,0,6.1-1.4,8.9-4.1
	c2.7-2.6,5.6-3.9,8.5-3.8c4.6,0.2,7.9,3.8,7.9,3.8l0,0c0.1,0.2,3.5,3.9,8.6,4.1c0.1,0,0.3,0,0.4,0c3.1,0,6.1-1.4,8.9-4.1
	c2.7-2.6,5.6-3.9,8.5-3.8c4.6,0.2,7.9,3.8,7.9,3.8l0,0c0.1,0.2,3.5,3.9,8.6,4.1c0.1,0,0.3,0,0.4,0c3.1,0,6.1-1.4,8.9-4.1
	c2.7-2.6,5.6-3.9,8.5-3.8c4.6,0.2,7.9,3.8,7.9,3.8l0,0c0.1,0.2,3.5,3.9,8.6,4.1c0.1,0,0.3,0,0.4,0c3.1,0,6.1-1.4,8.9-4.1
	c2.7-2.6,5.6-3.9,8.5-3.8c4.6,0.2,7.9,3.8,7.9,3.8v0c0.1,0.2,3.5,3.9,8.6,4.1c0.1,0,0.3,0,0.4,0c3.1,0,6.1-1.4,8.9-4.1
	c2.7-2.6,5.6-3.9,8.5-3.8c4.6,0.2,7.9,3.8,7.9,3.8v0c0.1,0.2,3.5,3.9,8.6,4.1c0.1,0,0.3,0,0.4,0c3.1,0,6.1-1.4,8.9-4.1
	c2.7-2.6,5.6-3.9,8.5-3.8c4.6,0.2,7.9,3.8,7.9,3.8v0c0.1,0.2,3.5,3.9,8.6,4.1c0.1,0,0.3,0,0.4,0c3.1,0,6.1-1.4,8.9-4.1
	c2.7-2.6,5.6-3.9,8.5-3.8c4.6,0.2,7.9,3.8,7.9,3.8v0c0.1,0.2,3.5,3.9,8.6,4.1c0.1,0,0.3,0,0.4,0c3.1,0,6.1-1.4,8.9-4.1
	c2.7-2.6,5.6-3.9,8.5-3.8c4.6,0.2,7.9,3.8,7.9,3.8v0c0.1,0.2,3.5,3.9,8.6,4.1c0.1,0,0.3,0,0.4,0c3.1,0,6.1-1.4,8.9-4.1
	c2.7-2.6,5.6-3.9,8.5-3.8c4.6,0.2,7.9,3.8,7.9,3.8v0c0.1,0.2,3.5,3.9,8.6,4.1c0.1,0,0.3,0,0.4,0c3.1,0,6.1-1.4,8.9-4.1
	c2.7-2.6,5.6-3.9,8.5-3.8c4.6,0.2,7.9,3.8,7.9,3.8v0c0.1,0.2,3.5,3.9,8.6,4.1c0.1,0,0.3,0,0.4,0c3.1,0,6.1-1.4,8.9-4.1
	c2.7-2.6,5.6-3.9,8.5-3.8c4.6,0.2,7.9,3.8,7.9,3.8v0c0.1,0.2,3.5,3.9,8.6,4.1c0.1,0,0.3,0,0.4,0c3.1,0,6.1-1.4,8.9-4.1
	c2.7-2.6,5.6-3.9,8.5-3.8c4.6,0.2,7.9,3.8,7.9,3.8v0c0.1,0.2,3.5,3.9,8.6,4.1c0.1,0,0.3,0,0.4,0c3.1,0,6.1-1.4,8.9-4.1
	c2.7-2.6,5.6-3.9,8.5-3.8c4.6,0.2,7.9,3.8,7.9,3.8v0c0.1,0.2,3.5,3.9,8.6,4.1c0.1,0,0.3,0,0.4,0c3.1,0,6.1-1.4,8.9-4.1
	c2.7-2.6,5.6-3.9,8.5-3.8c4.6,0.2,7.9,3.8,7.9,3.8v0c0.1,0.2,3.5,3.9,8.6,4.1c0.1,0,0.3,0,0.4,0c3.1,0,6.1-1.4,8.9-4.1
	c2.7-2.6,5.6-3.9,8.5-3.8c4.6,0.2,7.9,3.8,7.9,3.8v0c0.1,0.2,3.5,3.9,8.6,4.1c0.1,0,0.3,0,0.4,0c3.1,0,6.1-1.4,8.9-4.1
	c2.7-2.6,5.6-3.9,8.5-3.8c4.6,0.2,7.9,3.8,7.9,3.8v0c0.1,0.2,3.5,3.9,8.6,4.1c0.1,0,0.3,0,0.4,0c3.1,0,6.1-1.4,8.9-4.1
	c2.7-2.6,5.6-3.9,8.5-3.8c4.6,0.2,7.9,3.8,7.9,3.8v0c0.1,0.2,3.5,3.9,8.6,4.1c0.1,0,0.3,0,0.4,0c3.1,0,6.1-1.4,8.9-4.1
	c2.7-2.6,5.6-3.9,8.5-3.8c4.6,0.2,7.9,3.8,7.9,3.8v0c0.1,0.2,3.5,3.9,8.6,4.1c0.1,0,0.3,0,0.4,0c3.1,0,6.1-1.4,8.9-4.1
	c2.7-2.6,5.6-3.9,8.5-3.8c4.6,0.2,7.9,3.8,7.9,3.8v0c0.1,0.2,3.5,3.9,8.6,4.1c0.1,0,0.3,0,0.4,0c3.1,0,6.1-1.4,8.9-4.1
	c2.7-2.6,5.6-3.9,8.5-3.8c4.6,0.2,7.9,3.8,7.9,3.8v0c0.1,0.2,3.5,3.9,8.6,4.1c0.1,0,0.3,0,0.4,0c3.1,0,6.1-1.4,8.9-4.1
	c2.7-2.6,5.6-3.9,8.5-3.8c4.6,0.2,7.9,3.8,7.9,3.8v0c0.1,0.2,3.5,3.9,8.6,4.1c0.1,0,0.3,0,0.4,0c3.1,0,6.1-1.4,8.9-4.1
	c2.7-2.6,5.6-3.9,8.5-3.8c4.6,0.2,7.9,3.8,7.9,3.8v0c0.1,0.2,3.5,3.9,8.6,4.1c0.1,0,0.3,0,0.4,0c3.1,0,6.1-1.4,8.9-4.1
	c2.7-2.6,5.6-3.9,8.5-3.8c4.6,0.2,7.9,3.8,7.9,3.8v0c0.1,0.2,3.5,3.9,8.6,4.1c0.1,0,0.3,0,0.4,0c3.1,0,6.1-1.4,8.9-4.1
	c2.7-2.6,5.6-3.9,8.5-3.8c4.6,0.2,7.9,3.8,7.9,3.8v0c0.1,0.2,3.5,3.9,8.6,4.1c0.1,0,0.3,0,0.4,0c3.1,0,6.1-1.4,8.9-4.1
	c2.7-2.6,5.6-3.9,8.5-3.8c4.6,0.2,7.9,3.8,7.9,3.8v0c0.1,0.2,3.5,3.9,8.6,4.1c0.1,0,0.3,0,0.4,0c3.1,0,6.1-1.4,8.9-4.1
	c2.7-2.6,5.6-3.9,8.5-3.8c4.6,0.2,7.9,3.8,7.9,3.8v0c0.1,0.2,3.5,3.9,8.6,4.1c0.1,0,0.3,0,0.4,0c3.1,0,6.1-1.4,8.9-4.1
	c2.7-2.6,5.6-3.9,8.5-3.8c4.6,0.2,7.9,3.8,7.9,3.8v0c0.1,0.2,3.5,3.9,8.6,4.1c0.1,0,0.3,0,0.4,0c3.1,0,6.1-1.4,8.9-4.1
	c2.7-2.6,5.6-3.9,8.5-3.8c4.6,0.2,7.9,3.8,7.9,3.8v0c0.1,0.2,3.5,3.9,8.6,4.1c0.1,0,0.3,0,0.4,0c3.1,0,6.1-1.4,8.9-4.1
	c2.7-2.6,5.6-3.9,8.5-3.8c4.6,0.2,7.9,3.8,7.9,3.8v0c0.1,0.2,3.5,3.9,8.6,4.1c0.1,0,0.3,0,0.4,0c3.1,0,6.1-1.4,8.9-4.1
	c2.7-2.6,5.6-3.9,8.5-3.8c4.6,0.2,7.9,3.8,7.9,3.8l0.7-0.7C1920.2,4,1916.7,0.2,1911.7,0z"/>
</svg>
